
<svg xmlns="http://www.w3.org/2000/svg" viewBox="0 0 100 100" x="0px" y="0px"><defs><style>

	.a{fill:#ffffff;}</style></defs><title>100icons2017</title><path class="a" d="M57.32,41.23H5.73a.85.85,0,0,1,0-1.7H57.32a.85.85,0,0,1,0,1.7Z"></path><path class="a" d="M42.4,64.53a4.12,4.12,0,0,1-2.92-1.21l-.23-.23a2.49,2.49,0,0,0-3.43,0l-.07.07a4.1,4.1,0,0,1-2.92,1.21h0a4.1,4.1,0,0,1-2.93-1.24,2.41,2.41,0,0,0-1.72-.73,2.37,2.37,0,0,0-1.73.71.85.85,0,0,1-1.2-1.2,4.1,4.1,0,0,1,2.92-1.21h0A4.1,4.1,0,0,1,31.1,62a2.41,2.41,0,0,0,1.72.73h0A2.41,2.41,0,0,0,34.55,62l.07-.07a4.13,4.13,0,0,1,5.84,0l.23.23a2.43,2.43,0,0,0,3.33.1l.46-.41a.85.85,0,0,1,1.13,1.27l-.46.41A4.11,4.11,0,0,1,42.4,64.53Z"></path><path class="a" d="M23.2,64.53a4.12,4.12,0,0,1-2.92-1.21L20,63.1a2.49,2.49,0,0,0-3.43,0l-.07.07a.85.85,0,1,1-1.2-1.2l.07-.07a4.13,4.13,0,0,1,5.84,0l.23.23a2.43,2.43,0,0,0,3.33.1l.46-.41a.85.85,0,1,1,1.13,1.27l-.46.41A4.12,4.12,0,0,1,23.2,64.53Z"></path><path class="a" d="M61.64,64.38h0a4.1,4.1,0,0,1-2.93-1.24A2.41,2.41,0,0,0,57,62.41h0a2.41,2.41,0,0,0-1.72.71.85.85,0,0,1-1.2-1.2A4,4,0,0,1,57,60.71a4.1,4.1,0,0,1,2.93,1.24,2.41,2.41,0,0,0,1.72.73A2.65,2.65,0,0,0,63.36,62l.07-.07a4.13,4.13,0,0,1,5.84,0l.23.23a.85.85,0,0,1-1.21,1.2l-.23-.23a2.49,2.49,0,0,0-3.43,0l-.07.07A4.1,4.1,0,0,1,61.64,64.38Z"></path><path class="a" d="M38.37,56.82a4.12,4.12,0,0,1-2.92-1.21l-.23-.23a2.49,2.49,0,0,0-3.43,0l-.07.07a4.1,4.1,0,0,1-2.92,1.21h0a4.1,4.1,0,0,1-2.93-1.24,2.41,2.41,0,0,0-1.72-.73h0a2.41,2.41,0,0,0-1.72.71.85.85,0,1,1-1.2-1.2A4.1,4.1,0,0,1,24.12,53h0a4.1,4.1,0,0,1,2.93,1.24,2.41,2.41,0,0,0,1.72.73h0a2.41,2.41,0,0,0,1.72-.71l.07-.07a4.13,4.13,0,0,1,5.84,0l.23.23a2.43,2.43,0,0,0,3.33.1l.46-.41a.85.85,0,0,1,1.13,1.27l-.46.41A4.11,4.11,0,0,1,38.37,56.82Z"></path><path class="a" d="M47.24,53.56h0a4.1,4.1,0,0,1-2.93-1.24,2.41,2.41,0,0,0-1.72-.73h0a2.41,2.41,0,0,0-1.72.71.85.85,0,1,1-1.2-1.2,4.1,4.1,0,0,1,2.92-1.21h0a4.1,4.1,0,0,1,2.93,1.24,2.41,2.41,0,0,0,1.72.73h0A2.41,2.41,0,0,0,49,51.15a4.16,4.16,0,0,1,3-1.28,4.1,4.1,0,0,1,2.92,1.21l.23.23a.85.85,0,1,1-1.2,1.2l-.23-.23a2.49,2.49,0,0,0-3.43,0A4.16,4.16,0,0,1,47.24,53.56Z"></path><path class="a" d="M17.29,49.29h0a3.57,3.57,0,0,1-2.55-1.08,1.89,1.89,0,0,0-1.35-.57h0a1.89,1.89,0,0,0-1.34.56.85.85,0,0,1-1.2-1.2,3.57,3.57,0,0,1,2.55-1.05h0A3.58,3.58,0,0,1,15.94,47a1.88,1.88,0,0,0,1.35.57h0A1.89,1.89,0,0,0,18.64,47,3.65,3.65,0,0,1,23.79,47l.19.19a.85.85,0,0,1-1.2,1.2l-.19-.19a1.9,1.9,0,0,0-2.69,0A3.63,3.63,0,0,1,17.29,49.29Z"></path><path class="a" d="M52,64.53a4.12,4.12,0,0,1-2.92-1.21l-.23-.23a2.49,2.49,0,0,0-3.43,0l-.07.07a3.91,3.91,0,0,1-2.94,1.21,4.1,4.1,0,0,1-2.93-1.24,2.43,2.43,0,0,0-3.45,0,.85.85,0,0,1-1.2-1.2,4.1,4.1,0,0,1,2.92-1.21h0A4.1,4.1,0,0,1,40.7,62a2.41,2.41,0,0,0,1.72.73h0A2.41,2.41,0,0,0,44.15,62l.07-.07a4.13,4.13,0,0,1,5.84,0l.23.23a2.43,2.43,0,0,0,3.33.1l.46-.41a.85.85,0,0,1,1.13,1.27l-.46.41A4.11,4.11,0,0,1,52,64.53Z"></path><path class="a" d="M94.63,59.46a.85.85,0,0,1-.25,0,.86.86,0,0,1-.6-.75,3.73,3.73,0,0,0-6.45-2.27.84.84,0,0,1-.9.22l-.74-.26a.85.85,0,0,1-.57-.74,3.73,3.73,0,0,0-6.45-2.27.85.85,0,0,1-.9.22L77,53.33a.85.85,0,0,1-.57-.74A3.73,3.73,0,0,0,70,50.33a.85.85,0,0,1-.9.22l-.74-.26a.85.85,0,0,1-.57-.74,3.73,3.73,0,0,0-6.45-2.27.85.85,0,0,1-1.42-.86A18.8,18.8,0,1,1,95.43,58.89.85.85,0,0,1,94.63,59.46Zm-4.57-5.94a5.43,5.43,0,0,1,4.44,2.31A17.11,17.11,0,0,0,62.59,44.62a5.42,5.42,0,0,1,3.31.09h0a5.44,5.44,0,0,1,3.49,3.9,5.43,5.43,0,0,1,8.65,3,5.43,5.43,0,0,1,8.65,3A5.44,5.44,0,0,1,90.05,53.52Z"></path><path class="a" d="M72.07,69.75a.85.85,0,0,1-.8-1.13l5.62-16.24a.85.85,0,0,1,1.61.56L72.87,69.18A.85.85,0,0,1,72.07,69.75Z"></path><path class="a" d="M88.22,83.8H38.88a.85.85,0,0,1-.57-.22L25.85,72.44A.85.85,0,0,1,26.41,71H75.75a.85.85,0,0,1,.57.22L88.78,82.31a.85.85,0,0,1-.57,1.48Zm-49-1.7H86L75.42,72.66H28.64Z"></path><path class="a" d="M60.46,83.22a.85.85,0,0,1-.58-.23L48.43,72.43a.85.85,0,0,1,1.15-1.25L61,81.75a.85.85,0,0,1-.58,1.48Z"></path><path class="a" d="M67.35,83.22a.85.85,0,0,1-.58-.23L55.32,72.43a.85.85,0,1,1,1.15-1.25L67.93,81.75a.85.85,0,0,1-.58,1.48Z"></path><path class="a" d="M39.22,30.21A5.77,5.77,0,1,1,45,24.44,5.78,5.78,0,0,1,39.22,30.21Zm0-9.84a4.07,4.07,0,1,0,4.07,4.07A4.07,4.07,0,0,0,39.22,20.37Z"></path><path class="a" d="M37.24,25.56a.85.85,0,0,1-.85-.85,3.1,3.1,0,0,1,3.1-3.1.85.85,0,0,1,0,1.7,1.4,1.4,0,0,0-1.4,1.4A.85.85,0,0,1,37.24,25.56Z"></path><path class="a" d="M44.56,19.87a.85.85,0,0,1-.6-1.45l2.16-2.16a.85.85,0,1,1,1.2,1.2l-2.16,2.16A.84.84,0,0,1,44.56,19.87Z"></path><path class="a" d="M31.72,32.7a.85.85,0,0,1-.6-1.45l2.16-2.16a.85.85,0,0,1,1.2,1.2l-2.16,2.16A.84.84,0,0,1,31.72,32.7Z"></path><path class="a" d="M33.88,19.87a.84.84,0,0,1-.6-.25l-2.16-2.16a.85.85,0,1,1,1.2-1.2l2.16,2.16a.85.85,0,0,1-.6,1.45Z"></path><path class="a" d="M46.72,32.7a.84.84,0,0,1-.6-.25L44,30.29a.85.85,0,0,1,1.2-1.2l2.16,2.16a.85.85,0,0,1-.6,1.45Z"></path><path class="a" d="M39.22,17.65a.85.85,0,0,1-.85-.85V13.75a.85.85,0,1,1,1.7,0V16.8A.85.85,0,0,1,39.22,17.65Z"></path><path class="a" d="M39.22,35.81a.85.85,0,0,1-.85-.85V31.9a.85.85,0,1,1,1.7,0V35A.85.85,0,0,1,39.22,35.81Z"></path><path class="a" d="M51.42,25.2H46.77a.85.85,0,0,1,0-1.7h4.65a.85.85,0,0,1,0,1.7Z"></path><path class="a" d="M31.67,25.2H27.18a.85.85,0,0,1,0-1.7h4.49a.85.85,0,0,1,0,1.7Z"></path></svg>