<svg xmlns="http://www.w3.org/2000/svg" viewBox="0 0 100 100" x="0px" y="0px"><defs><style>.a{fill:#ffffff;}</style></defs><title>100icons2017</title><path class="a" d="M87.14,83.8h-74a.85.85,0,0,1-.85-.85V51.49a.85.85,0,1,1,1.7,0V82.1H86.29V51.49a.85.85,0,1,1,1.7,0V82.95A.85.85,0,0,1,87.14,83.8Z"></path><path class="a" d="M91.9,52.34H8.1A.85.85,0,0,1,7.44,51l6.94-8.69a.85.85,0,0,1,.66-.32H85a.85.85,0,0,1,.66.32L92.56,51a.85.85,0,0,1-.66,1.38Zm-82-1.7H90.13l-5.58-7H15.45Z"></path><path class="a" d="M39.29,60H18.78A.85.85,0,0,1,18,59l.76-3.2a.85.85,0,0,1,.83-.65h19a.85.85,0,0,1,.83.65l.76,3.2a.85.85,0,0,1-.83,1Zm-19.43-1.7H38.21l-.36-1.5H20.21Z"></path><path class="a" d="M39.29,72.69H18.78a.85.85,0,0,1-.85-.85v-3.2a.85.85,0,0,1,.85-.85H39.29a.85.85,0,0,1,.85.85v3.2A.85.85,0,0,1,39.29,72.69ZM19.63,71H38.44v-1.5H19.63Z"></path><path class="a" d="M26.8,69.54H22.34a.85.85,0,0,1-.85-.85V59.12a.85.85,0,0,1,.85-.85H26.8a.85.85,0,0,1,.85.85v9.57A.85.85,0,0,1,26.8,69.54Zm-3.61-1.7H26V60H23.19Z"></path><path class="a" d="M31.27,69.54H26.8a.85.85,0,0,1-.85-.85V59.12a.85.85,0,0,1,.85-.85h4.46a.85.85,0,0,1,.85.85v9.57A.85.85,0,0,1,31.27,69.54Zm-3.61-1.7h2.76V60H27.65Z"></path><path class="a" d="M35.73,69.54H31.27a.85.85,0,0,1-.85-.85V59.12a.85.85,0,0,1,.85-.85h4.46a.85.85,0,0,1,.85.85v9.57A.85.85,0,0,1,35.73,69.54Zm-3.61-1.7h2.76V60H32.12Z"></path><path class="a" d="M76.77,68.84H72.3a.85.85,0,0,1-.85-.85V57.43a.85.85,0,0,1,.85-.85h4.46a.85.85,0,0,1,.85.85V68A.85.85,0,0,1,76.77,68.84Zm-3.61-1.7h2.76V58.28H73.15Z"></path><path class="a" d="M81.23,68.84H76.77a.85.85,0,0,1-.85-.85V57.43a.85.85,0,0,1,.85-.85h4.46a.85.85,0,0,1,.85.85V68A.85.85,0,0,1,81.23,68.84Zm-3.61-1.7h2.76V58.28H77.62Z"></path><path class="a" d="M56.83,83.45H44.56a.85.85,0,0,1-.85-.85V56.67a.85.85,0,0,1,.85-.85H56.83a.85.85,0,0,1,.85.85V82.6A.85.85,0,0,1,56.83,83.45Zm-11.41-1.7H56V57.52H45.41Z"></path><path class="a" d="M68.61,60.91H60.28a.85.85,0,0,1-.85-.85V57.47a.85.85,0,0,1,.85-.85h8.32a.85.85,0,0,1,.85.85v2.59A.85.85,0,0,1,68.61,60.91Zm-7.47-1.7h6.62v-.89H61.13Z"></path><path class="a" d="M82.42,76.61h-21a.85.85,0,0,1,0-1.7h21a.85.85,0,1,1,0,1.7Z"></path><path class="a" d="M79,79.21H68.61a.85.85,0,1,1,0-1.7H79a.85.85,0,1,1,0,1.7Z"></path><path class="a" d="M66.47,68.12h-5a.85.85,0,0,1,0-1.7h5a.85.85,0,0,1,0,1.7Z"></path><path class="a" d="M47.57,71.31a.85.85,0,0,1-.85-.85V67.51a.85.85,0,0,1,1.7,0v2.95A.85.85,0,0,1,47.57,71.31Z"></path><path class="a" d="M29.74,76.61H13.13a.85.85,0,1,1,0-1.7H29.74a.85.85,0,1,1,0,1.7Z"></path><path class="a" d="M35.38,79.21H26.46a.85.85,0,1,1,0-1.7h8.93a.85.85,0,1,1,0,1.7Z"></path><path class="a" d="M19.82,79.21H17a.85.85,0,0,1,0-1.7h2.85a.85.85,0,1,1,0,1.7Z"></path><path class="a" d="M66.47,35.17h-.13l-8.25-1.23c-1.36-.34-2.74-.61-4.57-.89-3.62-.56-8.15-2.65-10.31-4.77-5.61-5.5-11.55-5.5-17.16,0a13.88,13.88,0,0,1-9.77,4H8.1a.85.85,0,1,1,0-1.7h8.18A12.19,12.19,0,0,0,24.86,27c6.3-6.18,13.24-6.18,19.54,0,1.91,1.87,6.11,3.8,9.37,4.3,1.88.29,3.31.57,4.64.91l8.17,1.22a.85.85,0,0,1-.12,1.69Z"></path><path class="a" d="M79,30.81A4.79,4.79,0,1,1,83.79,26,4.8,4.8,0,0,1,79,30.81Zm0-7.88A3.09,3.09,0,1,0,82.09,26,3.1,3.1,0,0,0,79,22.93Z"></path><path class="a" d="M71.55,26.87H70a.85.85,0,1,1,0-1.7h1.51a.85.85,0,1,1,0,1.7Z"></path><path class="a" d="M88,26.87H86.45a.85.85,0,1,1,0-1.7H88a.85.85,0,0,1,0,1.7Z"></path><path class="a" d="M72.66,33.21a.85.85,0,0,1-.6-1.45l1.07-1.07a.85.85,0,0,1,1.2,1.2L73.26,33A.85.85,0,0,1,72.66,33.21Z"></path><path class="a" d="M84.27,21.6a.85.85,0,0,1-.6-1.45l1.07-1.07a.85.85,0,0,1,1.2,1.2l-1.07,1.07A.85.85,0,0,1,84.27,21.6Z"></path><path class="a" d="M85.34,33.21a.85.85,0,0,1-.6-.25l-1.07-1.07a.85.85,0,0,1,1.2-1.2l1.07,1.07a.85.85,0,0,1-.6,1.45Z"></path><path class="a" d="M73.73,21.6a.85.85,0,0,1-.6-.25l-1.07-1.07a.85.85,0,0,1,1.2-1.2l1.07,1.07a.85.85,0,0,1-.6,1.45Z"></path><path class="a" d="M79,35.83a.85.85,0,0,1-.85-.85V33.47a.85.85,0,0,1,1.7,0V35A.85.85,0,0,1,79,35.83Z"></path><path class="a" d="M79,19.42a.85.85,0,0,1-.85-.85V17.05a.85.85,0,0,1,1.7,0v1.51A.85.85,0,0,1,79,19.42Z"></path></svg>