

<svg xmlns="http://www.w3.org/2000/svg" viewBox="0 0 100 100" x="0px" y="0px"><defs><style>.a{fill:#ffffff;}</style></defs><title>100icons2017</title><path class="a" d="M85.42,73.33A13.88,13.88,0,0,1,82.9,73a17.09,17.09,0,0,0-3.26-.41H20.36A17.09,17.09,0,0,0,17.1,73c-1.78.34-3.46.67-4.69-.35-1.06-.87-1.53-2.51-1.53-5.32v-.8A25.79,25.79,0,0,1,14.2,54L25,34.65a.85.85,0,1,1,1.48.83L15.68,54.79a24.09,24.09,0,0,0-3.1,11.73v.8c0,2.16.31,3.51.91,4s1.85.27,3.29,0a18.7,18.7,0,0,1,3.58-.44H79.64a18.7,18.7,0,0,1,3.58.44c1.43.28,2.67.51,3.29,0s.91-1.85.91-4V63.81a13.56,13.56,0,0,0-1.75-6.61L73.51,35.48A.85.85,0,0,1,75,34.65L87.15,56.38a15.27,15.27,0,0,1,2,7.44v3.51c0,2.8-.47,4.44-1.53,5.32A3.26,3.26,0,0,1,85.42,73.33Z"></path><path class="a" d="M30.49,40.84A3.73,3.73,0,0,1,27,38.44L24.6,32A3.71,3.71,0,0,1,27,27.18l15-4.49a3.72,3.72,0,0,1,4.53,2.25L49,31.33a3.71,3.71,0,0,1-2.41,4.86h0l-15,4.49A3.68,3.68,0,0,1,30.49,40.84ZM43.1,24.23a2,2,0,0,0-.57.08l-15,4.49a2,2,0,0,0-1.31,2.64l2.41,6.4a2,2,0,0,0,2.46,1.22l15-4.49h0a2,2,0,0,0,1.31-2.64L45,25.53A2,2,0,0,0,43.1,24.23Zm3.24,11.15h0Z"></path><path class="a" d="M71,37.17H52.81a3.69,3.69,0,0,1-3.69-3.69V26.15a3.69,3.69,0,0,1,3.69-3.69H71a3.69,3.69,0,0,1,3.69,3.69v7.34A3.69,3.69,0,0,1,71,37.17Zm-18.21-13a2,2,0,0,0-2,2v7.34a2,2,0,0,0,2,2H71a2,2,0,0,0,2-2V26.15a2,2,0,0,0-2-2Z"></path><path class="a" d="M58.7,52.42h-.08c-5.76-.53-10.48-2.7-15.06-4.8C37.38,44.78,31,41.85,21.89,43a.85.85,0,0,1-.21-1.69c9.58-1.2,16.19,1.83,22.59,4.77,4.65,2.13,9,4.15,14.5,4.65a.85.85,0,0,1-.08,1.7Z"></path><path class="a" d="M75.31,50.05a.85.85,0,0,1-.42-1.59c3-1.66,2.48-6.17,2.48-6.22A.85.85,0,0,1,79.06,42c0,.23.6,5.69-3.34,7.9A.84.84,0,0,1,75.31,50.05Z"></path><path class="a" d="M61.19,46.43c-4.46,0-9.05-1.8-13.5-3.53s-8.55-3.34-12.49-3.34a.85.85,0,0,1,0-1.7c4.26,0,8.76,1.76,13.11,3.45S57,44.73,61.19,44.73c13,0,13.87-5.67,13.88-5.73a.86.86,0,0,1,.94-.75.84.84,0,0,1,.75.92C76.73,39.47,75.9,46.43,61.19,46.43Z"></path><path class="a" d="M36.31,49.19a.85.85,0,0,1-.37-.08c-3.66-1.75-10.09-1.33-10.15-1.32a.85.85,0,0,1-.12-1.7c.28,0,6.94-.46,11,1.48a.85.85,0,0,1-.37,1.62Z"></path><path class="a" d="M82.54,67.25H12.91a.85.85,0,1,1,0-1.7H82.54a.85.85,0,0,1,0,1.7Z"></path><path class="a" d="M82.54,81.76H79.26a.85.85,0,0,1-.85-.85V75.43a.85.85,0,1,1,1.7,0v4.63h1.58V75.43a.85.85,0,1,1,1.7,0v5.48A.85.85,0,0,1,82.54,81.76Z"></path><path class="a" d="M20.79,81.76H17.46a.85.85,0,0,1-.85-.85V76.57a.85.85,0,0,1,1.7,0v3.49h1.63V76.75a.85.85,0,1,1,1.7,0v4.16A.85.85,0,0,1,20.79,81.76Z"></path><path class="a" d="M26.83,28.16a.85.85,0,0,1-.85-.85V19.09a.85.85,0,0,1,.85-.85H72.21a.85.85,0,0,1,.85.85v4.22a.85.85,0,0,1-1.7,0V19.94H27.68v7.37A.85.85,0,0,1,26.83,28.16Z"></path><path class="a" d="M85,76.28H14.68a.85.85,0,0,1-.85-.85v-1.7a.85.85,0,1,1,1.7,0v.85H84.19v-.85a.85.85,0,1,1,1.7,0v1.7A.85.85,0,0,1,85,76.28Z"></path><path class="a" d="M63.61,61.32a.85.85,0,0,1-.78-.51l-4.05-9.29a.85.85,0,0,1,.53-1.15l7-2.18a.85.85,0,0,1,1,.47L71.39,58a.85.85,0,0,1-.53,1.15l-7,2.18A.84.84,0,0,1,63.61,61.32Zm-2.89-9.61,3.37,7.73,5.37-1.67L66.08,50Z"></path><path class="a" d="M70.37,59.22a.85.85,0,0,1-.78-.51l-4.05-9.29a.85.85,0,0,1,.53-1.15l7-2.18a.85.85,0,0,1,1,.47l4.05,9.29A.85.85,0,0,1,77.62,57l-7,2.18A.84.84,0,0,1,70.37,59.22Zm-2.89-9.61,3.37,7.73,5.37-1.67-3.37-7.73Z"></path><path class="a" d="M69.83,51.93a.85.85,0,0,1-.27-1.66l2.54-.85A.85.85,0,1,1,72.64,51l-2.54.85A.86.86,0,0,1,69.83,51.93Z"></path><path class="a" d="M77.24,60.22h-.08l-7.81-.71a.85.85,0,1,1,.15-1.69l6.89.62V57a.85.85,0,0,1,1.7,0v2.39a.85.85,0,0,1-.85.85Z"></path></svg>