

<svg xmlns="http://www.w3.org/2000/svg" viewBox="0 0 100 100" x="0px" y="0px"><defs>

	<style>
		.a{fill:#ffffff;}</style></defs><title>100icons2017</title><path class="a" d="M9,23.49a.85.85,0,0,1-.67-1.37c.91-1.15,5.56-6.93,8.36-7.38,3.23-.52,5.43,1.37,7.2,2.88,2.12,1.81,3.13,2.54,4.88.88a43.26,43.26,0,0,0,3-3.28c2.24-2.62,4-4.68,8.3-4.87,3.25-.14,5.25,2.35,7,4.54,1.56,1.92,3,3.74,5.08,3.74a.85.85,0,0,1,0,1.7c-2.86,0-4.66-2.22-6.4-4.37s-3.3-4-5.63-3.91c-3.56.16-4.88,1.71-7.08,4.28a44.79,44.79,0,0,1-3.14,3.4c-2.93,2.8-5.17.88-7.16-.81C21.13,17.49,19.41,16,17,16.41c-1.66.27-5.36,4.28-7.29,6.75A.85.85,0,0,1,9,23.49Z"></path><path class="a" d="M9,85.33H9a.85.85,0,0,1-.81-.89c.53-10.46,7.16-19,19.17-24.65A.85.85,0,0,1,28,61.32c-11.57,5.46-17.69,13.27-18.2,23.2A.85.85,0,0,1,9,85.33Z"></path><path class="a" d="M47.61,49.81a.85.85,0,0,1-.48-1.55c3.59-2.43,4-5.3,4.54-8.63.61-3.94,1.29-8.41,7.46-12.54,12.08-8.08,31-4.42,31.8-4.25a.85.85,0,0,1-.33,1.67c-.19,0-19-3.69-30.52,4-5.55,3.71-6.15,7.61-6.73,11.38-.52,3.41-1.07,6.94-5.27,9.78A.85.85,0,0,1,47.61,49.81Z"></path><path class="a" d="M91,81.76a.84.84,0,0,1-.46-.14c-.59-.38-14.34-9.56-12-21.55,1.84-9.48-.37-13.45-2.32-17-1.59-2.85-3.09-5.55-1.81-10.39,2.83-10.74,16.3-9.91,16.43-9.9a.85.85,0,0,1-.12,1.7,20.66,20.66,0,0,0-6.51.8c-4.38,1.3-7.13,3.94-8.15,7.84-1.1,4.18.11,6.36,1.65,9.13,2,3.57,4.46,8,2.5,18.11C78.08,71.26,91.33,80.11,91.47,80.2A.85.85,0,0,1,91,81.76Z"></path><path class="a" d="M34.09,76.29h-11a.85.85,0,0,1-.85-.85v-5a1.22,1.22,0,0,1,1.22-1.22h6.9a4.58,4.58,0,0,1,4.58,4.58v1.68A.85.85,0,0,1,34.09,76.29Zm-10.15-1.7h9.3v-.83a2.88,2.88,0,0,0-2.88-2.88H23.93Z"></path><path class="a" d="M28.57,60.11H23.06a.85.85,0,0,1-.85-.85V57.94a3.19,3.19,0,0,1,3.19-3.19h1.67a2.36,2.36,0,0,1,2.35,2.35v2.15A.85.85,0,0,1,28.57,60.11Zm-4.66-1.7h3.81v-1.3a.66.66,0,0,0-.65-.65H25.4a1.49,1.49,0,0,0-1.49,1.49Z"></path><path class="a" d="M69.14,59.82H28.73a.85.85,0,0,1-.79-1.17l2.63-6.55a5.56,5.56,0,0,1,5.16-3.53H62.14A5.56,5.56,0,0,1,67.3,52.1h0l2.63,6.55a.85.85,0,0,1-.79,1.17ZM30,58.12h37.9l-2.16-5.38h0a3.86,3.86,0,0,0-3.58-2.47H35.73a3.86,3.86,0,0,0-3.58,2.47Z"></path><path class="a" d="M71.59,83.28H56a.85.85,0,0,1,0-1.7h15.6a2.37,2.37,0,0,0,2.32-2.41l0-9.21a6.09,6.09,0,0,0-.93-2l-4.36-8.13H29.23l-4.32,8.06a6.37,6.37,0,0,0-1,2.08l0,9.22a2.37,2.37,0,0,0,2.32,2.4H41.75a.85.85,0,0,1,0,1.7H26.23a4.07,4.07,0,0,1-4-4.11l0-9.31a.85.85,0,0,1,0-.17A7.63,7.63,0,0,1,23.46,67L28,58.57a.85.85,0,0,1,.75-.45H69.1a.85.85,0,0,1,.75.45l4.55,8.51a7.38,7.38,0,0,1,1.16,2.62.77.77,0,0,1,0,.16l0,9.31A4.07,4.07,0,0,1,71.59,83.28Z"></path><path class="a" d="M74.81,76.29h-11a.85.85,0,0,1-.85-.85V73.76a4.58,4.58,0,0,1,4.58-4.58h6.75a1.4,1.4,0,0,1,1.4,1.4v4.86A.85.85,0,0,1,74.81,76.29Zm-10.17-1.7H74V70.89H67.51a2.88,2.88,0,0,0-2.88,2.88Z"></path><path class="a" d="M62.86,83.28a.85.85,0,0,1,0-1.7c.6,0,1.17-.63,1.45-1.33H56.58v1.81a.85.85,0,1,1-1.7,0V79.39a.85.85,0,0,1,.85-.85h9.6a.85.85,0,0,1,.85.85C66.18,81.23,64.76,83.28,62.86,83.28Z"></path><path class="a" d="M35.07,83.28c-1.9,0-3.32-2-3.32-3.88a.85.85,0,0,1,.85-.85h9.6a.85.85,0,0,1,.85.85v2.66a.85.85,0,1,1-1.7,0V80.24H33.63c.28.71.85,1.33,1.45,1.33a.85.85,0,0,1,0,1.7Z"></path><path class="a" d="M74.81,60.11H69.3a.85.85,0,0,1-.85-.85V57.11a2.36,2.36,0,0,1,2.35-2.35h1.67a3.19,3.19,0,0,1,3.19,3.19v1.32A.85.85,0,0,1,74.81,60.11Zm-4.66-1.7H74v-.47a1.49,1.49,0,0,0-1.49-1.49H70.8a.65.65,0,0,0-.65.65Z"></path><path class="a" d="M66.95,70.89H29.79a.85.85,0,0,1,0-1.7H66.95a.85.85,0,0,1,0,1.7Z"></path><path class="a" d="M55.71,84.28H42.16a.85.85,0,0,1-.85-.85V78.65a.85.85,0,0,1,.85-.85H55.71a.85.85,0,0,1,.85.85v4.78A.85.85,0,0,1,55.71,84.28ZM43,82.58H54.86V79.5H43Z"></path><path class="a" d="M63.78,76.29H34.09a.85.85,0,0,1,0-1.7h29.7a.85.85,0,0,1,0,1.7Z"></path><path class="a" d="M63.78,73.59H34.09a.85.85,0,0,1,0-1.7h29.7a.85.85,0,0,1,0,1.7Z"></path><path class="a" d="M28.15,80.24H23a.85.85,0,0,1-.85-.85V76.88A.85.85,0,0,1,23,76h5.13a.85.85,0,0,1,.85.85v2.52A.85.85,0,0,1,28.15,80.24Zm-4.28-1.7H27.3v-.82H23.87Z"></path><path class="a" d="M74.62,80.24H69.49a.85.85,0,0,1-.85-.85V76.88a.85.85,0,0,1,.85-.85h5.13a.85.85,0,0,1,.85.85v2.52A.85.85,0,0,1,74.62,80.24Zm-4.28-1.7h3.43v-.82H70.34Z"></path><path class="a" d="M34.7,89.67H29a2.61,2.61,0,0,1-2.6-2.6V82.43a.85.85,0,0,1,.85-.85h9.25a.85.85,0,0,1,.85.85v4.64A2.61,2.61,0,0,1,34.7,89.67Zm-6.65-6.39v3.79a.9.9,0,0,0,.9.9H34.7a.9.9,0,0,0,.9-.9V83.28Z"></path><path class="a" d="M68.87,89.67H63.13a2.61,2.61,0,0,1-2.6-2.6V82.43a.85.85,0,0,1,.85-.85h9.25a.85.85,0,0,1,.85.85v4.64A2.61,2.61,0,0,1,68.87,89.67Zm-6.65-6.39v3.79a.9.9,0,0,0,.9.9h5.74a.9.9,0,0,0,.9-.9V83.28Z"></path><path class="a" d="M20.15,48.67a.85.85,0,0,1-.85-.85V28.92a.85.85,0,1,1,1.7,0v18.9A.85.85,0,0,1,20.15,48.67Z"></path><path class="a" d="M23.8,33.42a.85.85,0,0,1-.6-.25l-3-3-3,3A.85.85,0,0,1,15.9,32l3.65-3.65a.88.88,0,0,1,1.2,0L24.4,32a.85.85,0,0,1-.6,1.45Z"></path><path class="a" d="M25,39.08a.85.85,0,0,1-.6-.25L20,34.41l-4.42,4.42a.85.85,0,0,1-1.2-1.2l5-5a.85.85,0,0,1,.6-.25h0a.85.85,0,0,1,.6.25l5,5a.85.85,0,0,1-.6,1.45Z"></path><path class="a" d="M25.58,44.52a.85.85,0,0,1-.6-.25l-4.83-4.83-4.83,4.83a.85.85,0,0,1-1.2-1.2l5.43-5.43a.85.85,0,0,1,1.2,0l5.44,5.43a.85.85,0,0,1-.6,1.45Z"></path><path class="a" d="M37.4,39.38a.85.85,0,0,1-.85-.85V25.84a.85.85,0,1,1,1.7,0V38.53A.85.85,0,0,1,37.4,39.38Z"></path><path class="a" d="M39.85,29.15a.84.84,0,0,1-.6-.25L37.4,27,35.55,28.9a.85.85,0,0,1-1.2-1.2l2.45-2.45a.85.85,0,0,1,1.2,0l2.45,2.45a.85.85,0,0,1-.6,1.45Z"></path><path class="a" d="M40.66,32.94a.85.85,0,0,1-.6-.25l-2.77-2.77-2.77,2.77a.85.85,0,1,1-1.2-1.2l3.37-3.37a.85.85,0,0,1,1.2,0l3.37,3.37a.85.85,0,0,1-.6,1.45Z"></path><path class="a" d="M41,36.59a.85.85,0,0,1-.6-.25l-3-3-3,3a.85.85,0,0,1-1.2-1.2l3.65-3.65a.88.88,0,0,1,1.2,0l3.65,3.65a.85.85,0,0,1-.6,1.45Z"></path></svg>